REM DIRINDEX 1\3,1\4,1\5,1\6,1\2\7,1\2\8,1\2\9,1\2\10,1\2\11
REM DIRNAME folder01,folder02,folder03,folder04,folder05,folder06,folder07,folder08,folder09,folder10,folder11
TITLE ""
FILE "DISC5Track21.mp3" MP3
  TRACK 01 AUDIO
    TITLE "0:"
    INDEX 01 00:00:00
  TRACK 02 AUDIO
    TITLE "3:cjc021_5377"
    INDEX 01 00:00:23
  TRACK 03 AUDIO
    TITLE "0:"
    INDEX 01 00:01:22
  TRACK 04 AUDIO
    TITLE "4:cjc021_5378"
    INDEX 01 00:02:73
  TRACK 05 AUDIO
    TITLE "0:"
    INDEX 01 00:03:74
  TRACK 06 AUDIO
    TITLE "5:cjc021_5379"
    INDEX 01 00:04:35
  TRACK 07 AUDIO
    TITLE "0:"
    INDEX 01 00:06:73
  TRACK 08 AUDIO
    TITLE "3:cjc021_5380"
    INDEX 01 00:08:32
  TRACK 09 AUDIO
    TITLE "0:"
    INDEX 01 00:09:34
  TRACK 10 AUDIO
    TITLE "4:cjc021_5381"
    INDEX 01 00:11:11
  TRACK 11 AUDIO
    TITLE "0:"
    INDEX 01 00:12:09
  TRACK 12 AUDIO
    TITLE "5:cjc021_5382"
    INDEX 01 00:12:48
  TRACK 13 AUDIO
    TITLE "0:"
    INDEX 01 00:14:51
  TRACK 14 AUDIO
    TITLE "3:cjc021_5383"
    INDEX 01 00:16:14
  TRACK 15 AUDIO
    TITLE "0:"
    INDEX 01 00:17:10
  TRACK 16 AUDIO
    TITLE "4:cjc021_5384"
    INDEX 01 00:18:64
  TRACK 17 AUDIO
    TITLE "0:"
    INDEX 01 00:19:60
  TRACK 18 AUDIO
    TITLE "5:cjc021_5385"
    INDEX 01 00:20:24
  TRACK 19 AUDIO
    TITLE "0:"
    INDEX 01 00:23:24
  TRACK 20 AUDIO
    TITLE "3:cjc021_5386"
    INDEX 01 00:24:61
  TRACK 21 AUDIO
    TITLE "0:"
    INDEX 01 00:25:58
  TRACK 22 AUDIO
    TITLE "4:cjc021_5387"
    INDEX 01 00:27:36
  TRACK 23 AUDIO
    TITLE "0:"
    INDEX 01 00:28:33
  TRACK 24 AUDIO
    TITLE "5:cjc021_5388"
    INDEX 01 00:28:70
  TRACK 25 AUDIO
    TITLE "0:"
    INDEX 01 00:31:16
  TRACK 26 AUDIO
    TITLE "3:cjc021_5389"
    INDEX 01 00:32:52
  TRACK 27 AUDIO
    TITLE "0:"
    INDEX 01 00:33:58
  TRACK 28 AUDIO
    TITLE "4:cjc021_5390"
    INDEX 01 00:35:33
  TRACK 29 AUDIO
    TITLE "0:"
    INDEX 01 00:36:40
  TRACK 30 AUDIO
    TITLE "5:cjc021_5391"
    INDEX 01 00:36:74
  TRACK 31 AUDIO
    TITLE "0:"
    INDEX 01 00:39:31
  TRACK 32 AUDIO
    TITLE "3:cjc021_5392"
    INDEX 01 00:40:66
  TRACK 33 AUDIO
    TITLE "0:"
    INDEX 01 00:41:69
  TRACK 34 AUDIO
    TITLE "4:cjc021_5393"
    INDEX 01 00:43:48
  TRACK 35 AUDIO
    TITLE "0:"
    INDEX 01 00:44:52
  TRACK 36 AUDIO
    TITLE "5:cjc021_5394"
    INDEX 01 00:45:16
  TRACK 37 AUDIO
    TITLE "0:"
    INDEX 01 00:47:07
  TRACK 38 AUDIO
    TITLE "3:cjc021_5395"
    INDEX 01 00:48:42
  TRACK 39 AUDIO
    TITLE "0:"
    INDEX 01 00:49:45
  TRACK 40 AUDIO
    TITLE "4:cjc021_5396"
    INDEX 01 00:51:22
  TRACK 41 AUDIO
    TITLE "0:"
    INDEX 01 00:52:24
  TRACK 42 AUDIO
    TITLE "5:cjc021_5397"
    INDEX 01 00:52:63
  TRACK 43 AUDIO
    TITLE "0:"
    INDEX 01 00:55:22
  TRACK 44 AUDIO
    TITLE "3:cjc021_5398"
    INDEX 01 00:56:59
  TRACK 45 AUDIO
    TITLE "0:"
    INDEX 01 00:57:72
  TRACK 46 AUDIO
    TITLE "4:cjc021_5399"
    INDEX 01 00:59:47
  TRACK 47 AUDIO
    TITLE "0:"
    INDEX 01 01:00:62
  TRACK 48 AUDIO
    TITLE "5:cjc021_5400"
    INDEX 01 01:01:25
  TRACK 49 AUDIO
    TITLE "0:"
    INDEX 01 01:04:01
  TRACK 50 AUDIO
    TITLE "3:cjc021_5401"
    INDEX 01 01:05:38
  TRACK 51 AUDIO
    TITLE "0:"
    INDEX 01 01:06:36
  TRACK 52 AUDIO
    TITLE "4:cjc021_5402"
    INDEX 01 01:08:13
  TRACK 53 AUDIO
    TITLE "0:"
    INDEX 01 01:09:14
  TRACK 54 AUDIO
    TITLE "5:cjc021_5403"
    INDEX 01 01:09:50
  TRACK 55 AUDIO
    TITLE "0:"
    INDEX 01 01:12:01
  TRACK 56 AUDIO
    TITLE "3:cjc021_5404"
    INDEX 01 01:13:38
  TRACK 57 AUDIO
    TITLE "0:"
    INDEX 01 01:14:51
  TRACK 58 AUDIO
    TITLE "4:cjc021_5405"
    INDEX 01 01:16:28
  TRACK 59 AUDIO
    TITLE "0:"
    INDEX 01 01:17:45
  TRACK 60 AUDIO
    TITLE "5:cjc021_5406"
    INDEX 01 01:18:06
  TRACK 61 AUDIO
    TITLE "0:"
    INDEX 01 01:20:61
